<svg width="512" height="491" viewBox="0 0 512 491" fill="none" xmlns="http://www.w3.org/2000/svg">
<path d="M0 197.312C0 210.133 5.099 222.08 13.867 230.912C3.904 241.813 -1.15201 256.448 0.234985 271.637C2.70999 298.752 27.158 320 55.851 320L187.605 320C181.12 339.819 170.666 376.149 170.666 405.333C170.666 451.605 209.983 490.666 234.666 490.666C256.831 490.666 272.682 478.207 273.343 477.674C275.882 475.626 277.332 472.575 277.332 469.333V397.013L338.772 263.872L341.332 262.592V266.667C341.332 272.555 346.111 277.334 351.999 277.334H458.667C488.064 277.333 512 253.397 512 224V53.333C512 23.936 488.064 0 458.667 0H394.667C371.584 0 351.894 14.72 344.448 35.243C326.699 26.112 302.805 21.312 287.979 21.312L92.16 21.312C68.928 21.312 48.619 36.992 43.84 58.581C41.387 69.696 42.816 80.896 47.68 90.624C31.936 98.56 21.333 114.795 21.333 133.312C21.333 140.864 23.061 148.096 26.346 154.645C10.603 162.581 0 178.816 0 197.312ZM362.667 53.333C362.667 35.69 377.046 21.333 394.667 21.333H458.667C476.331 21.333 490.667 35.69 490.667 53.333L490.667 224C490.667 241.643 476.31 256 458.667 256V255.893L362.71 255.893V245.226C362.71 245.162 362.667 245.119 362.667 245.055L362.667 53.333ZM45.013 170.965C49.13 170.496 52.608 167.701 53.909 163.754C55.21 159.829 54.144 155.477 51.114 152.639C45.674 147.498 42.687 140.628 42.687 133.29C42.687 119.85 52.842 108.522 66.324 106.986C70.441 106.517 73.919 103.722 75.22 99.775C76.521 95.85 75.455 91.498 72.425 88.66C65.385 82.025 62.569 72.724 64.681 63.188C67.305 51.305 78.868 42.665 92.18 42.665L288 42.665C303.851 42.665 329.365 49.513 341.333 58.409L341.333 238.677L325.952 246.357C323.797 247.445 322.069 249.237 321.045 251.434L257.045 390.101C256.405 391.488 256.064 393.024 256.064 394.56V463.424C251.627 465.877 243.925 469.227 234.731 469.227C223.04 469.227 192.064 440.15 192.064 405.227C192.064 367.702 212.48 313.558 212.693 313.024C213.93 309.76 213.504 306.069 211.498 303.189C209.493 300.309 206.229 298.581 202.709 298.581L55.914 298.581C38.122 298.581 23.018 285.866 21.525 269.61C20.394 257.45 26.197 245.887 36.693 239.423C39.978 237.418 41.898 233.77 41.749 229.93C41.621 226.09 39.402 222.634 35.968 220.863C26.965 216.255 21.376 207.21 21.376 197.268C21.397 183.829 31.552 172.501 45.013 170.965Z" fill="#45BDDF"/>
</svg>
