<svg width="512" height="492" viewBox="0 0 512 492" fill="none" xmlns="http://www.w3.org/2000/svg">
<path d="M512 294.021C512 281.2 506.901 269.253 498.133 260.421C508.096 249.52 513.152 234.885 511.765 219.696C509.29 192.581 484.842 171.333 456.149 171.333H324.395C330.88 151.514 341.334 115.184 341.334 86C341.334 39.728 302.017 0.666992 277.334 0.666992C255.169 0.666992 239.318 13.126 238.657 13.659C236.118 15.707 234.668 18.758 234.668 22V94.32L173.228 227.461L170.668 228.741V224.666C170.668 218.778 165.889 213.999 160.001 213.999H53.333C23.936 214 0 237.936 0 267.333V438C0 467.397 23.936 491.333 53.333 491.333H117.333C140.416 491.333 160.106 476.613 167.552 456.09C185.301 465.221 209.195 470.021 224.021 470.021H419.84C443.072 470.021 463.381 454.341 468.16 432.752C470.613 421.637 469.184 410.437 464.32 400.709C480.064 392.773 490.667 376.538 490.667 358.021C490.667 350.469 488.939 343.237 485.654 336.688C501.397 328.752 512 312.517 512 294.021ZM149.333 438C149.333 455.643 134.954 470 117.333 470H53.333C35.669 470 21.333 455.643 21.333 438V267.333C21.333 249.69 35.69 235.333 53.333 235.333V235.44H149.29V246.107C149.29 246.171 149.333 246.214 149.333 246.278V438ZM466.987 320.368C462.87 320.837 459.392 323.632 458.091 327.579C456.79 331.504 457.856 335.856 460.886 338.694C466.326 343.835 469.313 350.705 469.313 358.043C469.313 371.483 459.158 382.811 445.676 384.347C441.559 384.816 438.081 387.611 436.78 391.558C435.479 395.483 436.545 399.835 439.575 402.673C446.615 409.308 449.431 418.609 447.319 428.145C444.695 440.028 433.132 448.668 419.82 448.668H224C208.149 448.668 182.635 441.82 170.667 432.924V252.656L186.048 244.976C188.203 243.888 189.931 242.096 190.955 239.899L254.955 101.232C255.595 99.845 255.936 98.309 255.936 96.773V27.909C260.373 25.456 268.075 22.106 277.269 22.106C288.96 22.106 319.936 51.183 319.936 86.106C319.936 123.631 299.52 177.775 299.307 178.309C298.07 181.573 298.496 185.264 300.502 188.144C302.507 191.024 305.771 192.752 309.291 192.752H456.086C473.878 192.752 488.982 205.467 490.475 221.723C491.606 233.883 485.803 245.446 475.307 251.91C472.022 253.915 470.102 257.563 470.251 261.403C470.379 265.243 472.598 268.699 476.032 270.47C485.035 275.078 490.624 284.123 490.624 294.065C490.603 307.504 480.448 318.832 466.987 320.368Z" fill="#45BDDF"/>
</svg>
