<svg width="237" height="157" viewBox="0 0 237 157" fill="none" xmlns="http://www.w3.org/2000/svg">
<path d="M94.2044 18.088C93.6941 18.2906 91.9483 18.4693 89.8279 18.5442C89.479 18.5553 89.1368 18.5682 88.7999 18.583C88.3907 18.8006 87.764 18.6808 87.2351 18.6808L87.1626 18.6731C80.4209 19.128 75.7572 20.5557 67.3992 24.4776C66.3835 24.9556 65.3647 25.4504 64.3216 25.9735C63.9831 26.3708 63.5067 26.8463 62.9323 26.6797C59.5671 28.4125 55.8696 30.4765 51.18 33.231C49.194 34.3934 47.0093 35.9803 46.0825 36.9406C45.4869 37.5471 45.3411 37.6279 44.282 37.9817C41.2499 38.9925 38.3106 40.8422 36.7218 42.7528C33.1206 47.0687 31.3862 48.7567 27.9305 51.3343C24.9912 53.5176 22.6874 54.8014 19.8011 55.8827C15.7231 57.4091 11.5922 58.046 8.61322 57.6112C7.60692 57.4697 7.35542 57.3787 6.23002 56.8027C4.64122 55.9838 4.20432 55.893 2.70812 56.0446C1.54302 56.1558 0.616221 56.1153 0.311721 55.9131C0.0469208 55.7515 -0.0192793 55.8626 0.0866207 56.2769C0.351421 57.3787 1.88722 58.1571 4.48232 58.5209C8.01742 59.0061 15.8688 58.4098 19.8408 57.3485C20.2115 57.2474 20.5293 57.207 20.5293 57.2575C20.5293 57.4797 19.0728 58.4603 18.3182 58.7434C17.0471 59.2387 15.5642 59.4609 12.3866 59.6329C11.7379 59.6631 10.2682 59.825 9.14282 59.9867C4.45582 60.6537 2.74782 60.6235 0.219021 59.825C-0.0325794 59.744 -0.032579 59.7845 0.046921 61.0985C0.099821 61.8464 0.219021 62.6449 0.311721 62.8574C0.629421 63.5649 0.66922 63.575 4.85302 63.403C6.89202 63.3223 8.57352 63.2617 8.60002 63.2818C8.89122 63.4435 7.14362 63.7972 5.03842 64.0097C2.03292 64.3028 1.10612 64.5756 0.457319 65.3135C0.192519 65.6167 -0.0987798 66.4052 0.0336202 66.4962C0.13962 66.5769 2.74782 66.2435 3.97922 66.0009C11.6584 64.4745 20.1056 59.6935 29.2677 51.688C31.8892 49.4036 33.0941 48.2614 37.0528 44.3498C38.6681 42.7425 39.542 42.126 42.3225 40.62C44.7982 39.2756 46.2812 38.3052 47.6581 37.1327C50.4386 34.7876 54.7415 32.0484 59.5212 29.5921C61.4807 28.5915 70.7753 24.1339 72.6686 23.2949C74.6546 22.4155 77.3822 21.617 79.964 21.152C81.6983 20.8387 82.8239 20.6871 86.2132 20.303C90.6883 19.7875 92.2375 19.5247 94.806 18.8373C98.9634 17.7356 99.9035 17.6951 103.875 18.4937C106.987 19.1102 108.284 19.3225 109.503 19.4034C110.668 19.4842 111.303 19.6965 111.753 20.1716C111.925 20.3535 112.31 20.6972 112.588 20.9297C113.13 21.3845 113.276 21.4148 115.421 21.6574C118.294 21.9809 121.194 23.305 124.159 25.6399C124.967 26.2767 125.735 26.9236 125.854 27.0652C125.986 27.2067 126.159 27.328 126.251 27.328C126.768 27.328 128.965 27.9142 130.263 28.4095C131.375 28.8239 131.958 29.107 132.474 29.5113C133.216 30.0672 133.56 30.6737 133.401 31.078C133.321 31.26 133.255 31.2296 132.673 30.8354C131.706 30.1683 130.806 29.9055 130.329 30.138C130.117 30.239 129.892 30.7141 129.892 31.0376C129.892 31.1791 130.104 31.6542 130.369 32.0989C130.621 32.5336 130.819 32.9682 130.793 33.0693C130.74 33.2916 130.17 33.2512 129.574 32.9783C129.019 32.7256 128.793 32.7963 128.37 33.3422C128.184 33.5848 127.919 33.8476 127.774 33.9284C127.536 34.0598 127.668 34.08 129.032 34.1407C132.421 34.2923 134.222 34.9898 135.056 36.4655C135.48 37.2337 135.387 37.4864 134.924 36.8294C133.745 35.1919 132.765 35.6872 131.097 38.7499C130.872 39.1745 130.448 39.872 130.157 40.3064C129.866 40.7411 129.628 41.1153 129.628 41.1354C129.628 41.1555 129.826 41.1759 130.078 41.1759C130.329 41.1759 131.481 41.3174 132.633 41.4891C136.089 42.0249 138.009 41.9238 139.557 41.1354L140.021 40.9028L140.908 41.2769C142.735 42.0754 144.642 42.5303 146.773 42.702C148.958 42.8639 150.123 43.1571 151.063 43.7635C151.447 44.0061 152.003 44.6731 152.003 44.8956C152.003 44.9358 151.487 44.9562 150.851 44.9358C149.554 44.8853 148.468 45.0774 147.899 45.4311C147.661 45.5828 147.634 45.6232 147.806 45.5828C147.939 45.5526 148.164 45.5727 148.323 45.6333C148.547 45.7243 148.574 45.8053 148.495 46.2601C148.309 47.4528 147.992 47.5843 146.972 46.9374C146.164 46.4217 145.794 46.3207 145.198 46.4421C144.946 46.4927 144.695 46.5834 144.642 46.6443C144.456 46.8766 144.774 47.4833 145.582 48.4231C146.059 48.9689 146.442 49.4745 146.442 49.5552C146.442 49.7169 146.429 49.7169 149.223 49.262C152.904 48.6657 154.744 48.8276 155.313 49.7878C155.591 50.2426 155.658 50.6773 155.459 50.6773C155.393 50.6773 155.075 50.5863 154.731 50.4651C154.307 50.3236 153.91 50.273 153.42 50.2931C152.731 50.3236 152.731 50.3236 152.758 50.6569C152.758 50.839 152.851 51.0612 152.956 51.1522C153.327 51.4959 154.32 51.8902 155.935 52.3045C158.729 53.0324 159.563 53.5478 159.537 54.5587C159.537 54.8416 159.457 55.2358 159.351 55.4279L159.193 55.7816L159.087 55.3774C158.809 54.1947 158.451 53.6692 157.763 53.4467C157.154 53.2549 156.73 53.2649 155.273 53.5176C154.585 53.6388 153.791 53.7097 153.446 53.6793L152.824 53.6388L152.89 54.0129C152.983 54.4878 152.586 55.0945 151.805 55.6909C151.381 56.0142 151.156 56.1153 150.984 56.0648C150.772 56.0042 150.759 56.0142 150.944 56.1759C151.09 56.3174 151.13 56.6511 151.143 57.5406C151.143 59.0567 150.891 59.7136 150.097 60.3304L149.527 60.7648L150.256 60.8257C152.361 61.0178 155.604 62.5137 156.187 63.5649C156.412 63.9993 156.425 64.5351 156.2 64.7677C156.055 64.9193 156.028 64.8889 156.015 64.5251C155.989 64.0097 155.512 63.3628 154.969 63.1101C154.148 62.7158 152.824 62.9381 152.374 63.5345C152.281 63.666 152.109 63.9692 152.003 64.2219C151.805 64.6666 151.792 64.6767 151.275 64.6666C150.984 64.6566 150.388 64.5351 149.951 64.3936C148.971 64.0602 148.19 64.0398 147.714 64.333C147.012 64.7576 147.356 65.2426 149.289 66.5468C151.354 67.9313 152.123 68.8412 151.924 69.6598L151.831 70.0136L151.646 69.7509C151.553 69.5992 151.209 69.377 150.904 69.2556C150.335 69.0333 148.283 68.5682 147.859 68.5682C147.634 68.5682 147.634 68.5782 147.859 68.8312C148.071 69.0838 148.071 69.114 147.766 69.5487C147.594 69.7913 147.25 70.125 146.985 70.2766C146.535 70.5494 145.754 70.8931 145.582 70.8931C145.542 70.8931 145.688 70.6504 145.913 70.3472C146.959 68.9423 146.125 68.366 143.066 68.366C142.391 68.366 141.663 68.3155 141.451 68.2549L141.08 68.1438L141.742 68.0123C143.079 67.7395 143.755 66.7285 143.635 65.1315C143.556 64.0602 143.384 63.7771 142.881 63.8477C142.457 63.9186 141.941 63.6961 141.941 63.4538C141.941 63.3524 141.729 63.4334 141.319 63.7064C140.577 64.1713 140.167 64.2523 139.69 64.0197C139.531 63.9488 139.571 63.8882 139.862 63.7165C140.365 63.4133 140.617 62.9987 140.617 62.4732C140.617 61.5938 139.836 60.482 138.975 60.1282C138.644 59.9867 138.525 59.8856 138.578 59.7745C138.618 59.6935 138.684 59.4408 138.71 59.2183C138.79 58.6725 138.631 58.9355 138.114 60.2393C137.532 61.6948 136.976 62.2407 136.433 61.8869C136.261 61.7858 136.274 61.7454 136.459 61.5837C137.293 60.8762 135.731 58.713 134.129 58.3492C133.335 58.1671 132.752 58.4198 132.236 59.1678C131.772 59.8451 131.799 60.1584 132.474 61.998C133.017 63.4739 133.07 64.1713 132.673 64.5555C132.448 64.7777 131.746 64.9899 131.415 64.9394C131.375 64.9394 131.309 64.4846 131.283 63.9488C131.203 62.7259 131.097 62.4126 130.66 62.17C130.197 61.907 129.654 62.0385 128.079 62.8169C126.529 63.575 125.814 63.6961 125.192 63.2918L124.821 63.0392H125.457C125.986 63.0392 126.145 62.9987 126.397 62.7764C126.913 62.3116 126.927 61.9173 126.437 60.0272L125.986 58.2986L125.642 58.713C125.219 59.2286 124.623 59.562 124.014 59.643C123.656 59.6835 123.497 59.643 123.127 59.3903L122.69 59.0971L123.842 58.1772C125.642 56.7421 125.523 56.55 121.962 55.3774C119.088 54.4373 119.102 54.4373 119.287 54.7003C119.539 55.054 119.459 55.9232 119.141 56.4286C118.758 57.0352 117.632 57.8943 117.01 58.046C116.586 58.1571 116.467 58.147 116.189 58.0155C115.924 57.8843 115.858 57.7628 115.858 57.4395V57.0249L116.586 57.0654C117.38 57.0958 117.447 57.0554 117.447 56.5095C117.447 56.0446 117.023 55.5695 116.493 55.4483C116.255 55.3874 115.355 55.3168 114.507 55.2863C112.998 55.2258 112.23 55.0842 112.323 54.8921C112.349 54.8315 112.773 54.6699 113.289 54.5183C115.461 53.8814 116.639 53.2043 116.904 52.4259C117.036 52.0621 116.944 51.4658 116.732 51.1927C116.586 51.021 116.758 51.0612 117.169 51.2938C117.367 51.4049 117.804 51.5264 118.122 51.5565L118.691 51.6174L118.374 51.3038C117.963 50.9096 117.261 50.6469 116.891 50.7379C116.745 50.7683 116.162 51.021 115.62 51.2938C114.679 51.769 114.189 51.8801 113.686 51.7285C113.395 51.6475 113.62 51.3544 114.415 50.758C114.997 50.3336 115.063 50.2325 115.063 49.8484C115.063 49.343 114.64 48.585 114.335 48.4839C114.216 48.4535 113.792 48.504 113.408 48.6051C112.799 48.7667 112.667 48.7771 112.482 48.6556C112.243 48.504 112.256 48.3524 112.627 47.4224C112.813 46.9575 112.826 46.7858 112.707 46.5834C112.455 46.1691 112.005 46.1691 109.913 46.5734C108.682 46.8059 107.675 46.9374 107.146 46.9374C106.391 46.9374 106.259 46.907 105.915 46.6443C105.372 46.2196 105.425 46.1286 106.232 46.1286C106.961 46.1286 107.914 45.9569 108.748 45.6941C109.463 45.4616 110.628 44.5821 110.932 44.0262C111.211 43.5309 111.515 42.4898 111.37 42.4898C111.263 42.4898 110.668 43.2176 110.231 43.905C109.595 44.8753 109.026 45.1584 108.536 44.7337C108.324 44.562 108.351 44.5115 108.907 44.0162C109.608 43.3894 109.661 43.1065 109.158 42.3482C108.761 41.7418 108.51 41.5095 108.02 41.3174C107.53 41.1253 107.133 41.1354 106.524 41.388C106.087 41.56 105.848 41.5801 105.199 41.5397C104.326 41.469 103.081 41.0647 102.883 40.7716C102.724 40.539 102.777 40.5086 103.611 40.4178C105.08 40.2559 106.06 39.8516 106.06 39.4169C106.06 39.2957 105.888 39.0126 105.676 38.7701C105.332 38.3961 105.306 38.295 105.425 38.0424C105.623 37.5875 106.259 37.2337 106.841 37.2337C107.854 37.2337 108.295 37.8578 108.827 38.5983L108.841 38.0727C108.841 37.7796 108.748 37.3651 108.629 37.1428C108.165 36.2533 107.08 36.3745 104.763 37.5572C104.074 37.9211 103.28 38.1839 103.28 38.0525C103.28 38.0019 103.558 37.8806 103.889 37.7796C104.485 37.6077 104.498 37.5875 104.418 37.2539C104.379 37.0518 104.18 36.7384 103.968 36.5363C103.412 36.0006 103.253 35.7276 103.333 35.4547C103.478 35.0403 103.068 35.1717 102.724 35.6367C102.273 36.2735 101.942 36.2229 101.876 35.5255C101.691 33.7869 99.8903 33.0693 98.1559 34.0598L97.7453 34.3024L98.0631 35.1818C98.4737 36.3341 98.4869 37.1832 98.0895 37.638C97.9175 37.8301 97.7188 37.9918 97.6395 38.012C97.5601 38.0323 97.4011 37.6279 97.2423 36.9709L96.9907 35.8995L96.2626 35.7276C95.8652 35.6266 95.3357 35.475 95.1106 35.3739L94.6738 35.202V34.3226C94.6738 33.2209 94.3957 32.3011 94.0118 32.0585C93.8528 31.9574 93.535 31.8765 93.3233 31.8765H92.9259L93.3895 32.2707C94.2102 32.9682 94.7134 34.3934 94.3692 35.111C94.2499 35.3739 94.1044 35.4851 93.7866 35.5659C93.4556 35.6367 93.3498 35.7175 93.3498 35.8894C93.3498 36.041 93.2834 36.1016 93.1643 36.0612C92.8862 35.9803 92.4229 36.3846 92.4229 36.698C92.4229 37.0417 92.873 37.6279 94.1573 38.9622C96.1168 40.9938 96.3552 41.5095 95.9845 42.7123C95.8519 43.1467 95.3622 43.7029 95.1106 43.7029C94.7531 43.6926 94.6738 43.5309 94.8722 43.1671C95.1503 42.6514 95.1238 41.954 94.806 41.4791C94.3163 40.7411 92.7804 40.0741 91.4696 40.0336C91.1651 40.0236 90.8606 39.9731 90.8077 39.9225C90.768 39.872 90.5164 40.1448 90.2647 40.539C89.6821 41.4082 89.2453 41.8127 88.7156 41.9844C88.1594 42.1564 87.9875 42.0148 88.2523 41.6106C88.954 40.539 88.6362 38.5882 87.6168 37.6886C87.14 37.264 86.6238 37.1933 86.2132 37.4864C85.7763 37.7796 85.2599 37.4359 84.3465 36.2735C83.711 35.4648 83.7242 35.5053 84.4788 36.8193C85.1805 38.0424 85.3527 38.6589 85.1276 39.0632C84.9686 39.3664 84.5582 39.5585 84.0817 39.5585C83.8698 39.5585 83.8565 39.5182 83.9756 39.124C84.3465 37.8907 83.8168 36.9002 82.5193 36.4453C81.8441 36.2027 81.6189 36.1724 80.2421 36.1724C78.971 36.1724 78.6135 36.2128 78.0971 36.3948C77.3425 36.6576 77.0115 37.0214 77.1041 37.4662C77.1835 37.8503 77.8587 38.7499 78.0574 38.7499C78.1368 38.7499 78.812 38.9824 79.5536 39.2653C81.778 40.0942 82.6648 40.9232 82.3339 41.8529C82.1222 42.4493 82.0161 42.4493 81.6189 41.8733C80.7053 40.4784 79.9375 39.8617 79.1165 39.8617C78.6797 39.8617 77.7264 40.2964 77.7264 40.5086C77.7264 40.5795 78.0309 41.1454 78.4016 41.7722C79.964 44.4405 80.2685 45.9264 79.2623 45.9264C78.971 45.9264 78.9445 45.886 78.8916 45.2391C78.8649 44.744 78.7326 44.38 78.4281 43.8746C77.3557 42.136 74.6017 40.0538 72.8409 39.6495L72.2715 39.5182L72.3641 38.9217C72.417 38.5275 72.3905 38.2849 72.2847 38.1839C72.1125 38.0221 71.8876 38.0828 71.9669 38.2748C71.9934 38.3456 72.0463 38.8106 72.086 39.3262L72.1789 40.2559L71.7815 40.1651C71.5698 40.1247 71.1991 40.1143 70.9607 40.1651L70.5104 40.2358C70.9383 40.323 71.366 40.3966 71.7947 40.4784C74.8004 41.0544 76.2566 41.8733 75.714 42.6819C75.5153 42.965 75.2107 43.0761 75.2107 42.8639C75.2107 42.7829 75.0917 42.6112 74.9327 42.4797C74.7871 42.3482 74.6945 42.2876 74.7342 42.3585C74.8401 42.4998 74.0455 42.6919 73.3174 42.6919C72.9599 42.6919 72.7215 42.7628 72.4966 42.9446C72.0728 43.2581 72.0595 43.723 72.4437 44.8451C73.0393 46.6038 72.2847 48.2109 71.0533 47.8471C70.6165 47.7256 70.6033 47.4528 71.0004 46.0479C71.2653 45.0875 71.2653 44.9864 71.0798 44.6731C70.7885 44.2082 69.822 43.8645 68.829 43.8545C68.1273 43.8545 68.0215 43.8847 67.5844 44.2284L67.0946 44.5922L66.7372 44.0262C66.5385 43.7129 66.2869 43.3894 66.1678 43.3087C65.8765 43.1367 65.8897 43.1671 66.2075 43.6825C66.6046 44.3093 66.7769 45.0774 66.6975 45.8759C66.5782 47.1091 65.9823 47.8471 65.0955 47.8471C64.2348 47.8471 64.1951 47.7965 64.6319 47.1396C65.519 45.8153 64.9761 44.8147 63.3873 44.8147C61.6133 44.8247 60.501 45.9873 60.6864 47.6349C60.832 48.8882 62.0501 51.2636 63.6257 53.3054C65.0955 55.2157 67.002 56.2365 69.1203 56.2568C69.9942 56.2568 70.0207 56.2568 70.6033 55.8121C71.9405 54.791 74.3104 54.7508 75.383 55.7211C75.5814 55.9031 75.7404 56.0952 75.7404 56.1457C75.7404 56.2612 73.9968 56.2365 73.7545 56.2365V56.55C73.7545 57.5102 74.8533 57.6417 77.5277 56.9948C78.0971 56.8532 78.7194 56.7421 78.9048 56.7421C79.6859 56.7421 81.7248 57.7628 82.2412 58.3997C82.5855 58.8241 82.559 59.1276 82.1619 59.4205C81.6586 59.8147 81.5263 59.7541 81.6189 59.1376L81.7115 58.6119L81.0099 58.2886C78.812 57.2776 77.9251 57.4395 77.9251 58.8545C77.9251 59.4914 77.9383 59.5115 78.309 59.5824C79.3417 59.7946 80.4537 61.1995 80.3347 62.1295C80.295 62.5439 80.1891 62.6955 79.8581 62.928C79.633 63.0797 79.3814 63.2111 79.3152 63.2111C79.1297 63.2111 78.8252 62.7055 78.7194 62.2507C78.5474 61.4522 78.5207 61.3916 78.2429 61.3916C77.8851 61.3916 77.2099 61.6543 76.7599 61.988C76.1773 62.3923 75.9653 62.7764 76.0714 63.2008C76.2566 63.9591 76.9453 64.4846 78.2693 64.8688C79.0901 65.1114 79.4607 65.0204 82.3603 63.9591C85.0218 62.9886 85.9883 62.7561 86.7561 62.9079C87.1003 62.9886 87.3255 63.1101 87.471 63.3223C87.8285 63.8581 87.6829 63.9488 86.9283 63.666C86.1206 63.3628 85.7234 63.3524 85.538 63.6054C85.4189 63.7871 85.3395 64.7272 85.4586 64.7272C85.485 64.7272 85.7631 64.6566 86.0809 64.5656C87.7358 64.1208 90.1324 63.9792 91.0722 64.2724C92.039 64.5857 92.5552 65.1921 92.5552 65.9805L92.542 66.3951L92.3301 66.0919C91.5226 64.9092 89.9867 64.6261 88.1594 65.3135C87.2858 65.6368 86.5045 66.1425 86.8884 66.1425C87.2196 66.1425 87.6565 66.587 87.7623 67.0622C87.9478 67.8707 87.5903 68.6796 86.9548 68.8613C86.7296 68.9219 86.9283 69.0029 87.9742 69.2759L89.2718 69.5992L90.3177 68.8108C91.2974 68.0729 91.4035 68.0123 91.9065 68.0223C92.2507 68.0327 92.8598 68.1943 93.6543 68.5076C95.0047 69.023 95.5741 69.0838 96.1962 68.7703C97.2423 68.2448 100.367 68.7907 101.532 69.7104C102.049 70.125 102.221 70.5189 102.049 70.9941L101.929 71.3479L101.611 70.6909C101.082 69.6397 100.446 69.2759 99.6651 69.5892C99.5064 69.6598 98.9502 70.0035 98.4205 70.3472C97.7585 70.792 97.3482 70.9941 97.1098 70.9941C96.7655 70.9941 96.7655 71.0042 97.3614 71.4894C98.6854 72.561 99.5461 73.976 99.3606 74.7745C99.268 75.2193 98.6457 75.7752 98.1292 75.8762C97.7982 75.9368 97.7982 75.9368 98.0498 75.3002C98.6324 73.8244 97.785 73.0259 95.5342 72.9349C93.9586 72.8743 92.039 73.2685 91.4961 73.7738C91.3371 73.9255 91.3371 73.9559 91.5358 74.0366C91.6549 74.0972 91.9197 74.3498 92.1184 74.6028C92.5817 75.2092 92.6346 76.0784 92.2375 76.3109C91.8139 76.5435 91.6549 76.4826 91.3106 75.9672C91.1387 75.7045 90.8473 75.3508 90.6751 75.1788L90.3573 74.8555L89.9337 75.2394C89.3379 75.7852 89.3776 76.0683 90.0793 76.3816C91.2577 76.9073 93.0717 78.6155 93.7072 79.7881C94.3031 80.8798 93.9586 81.6074 92.8465 81.6074C92.1978 81.6074 92.1581 81.5267 92.1581 80.1114C92.1581 79.1007 92.1449 79.0602 91.7874 78.7771C91.3636 78.4638 90.1721 78.2212 89.5895 78.3326C89.0995 78.4234 88.5172 78.9692 88.2523 79.6061C87.8816 80.445 87.4049 81.2335 87.1003 81.4761C86.8884 81.6478 86.6635 81.7084 86.2396 81.7084C85.9219 81.7084 85.6705 81.6682 85.6705 81.6177C85.6705 81.5671 85.8822 81.102 86.147 80.5866C86.4648 79.9699 86.6238 79.4645 86.637 79.1007C86.6503 78.6054 86.6106 78.5244 86.2264 78.2617C85.5512 77.7968 85.207 77.8574 84.002 78.6559C83.4329 79.0401 82.8239 79.4039 82.6648 79.4645C82.3339 79.6061 81.4867 79.6264 81.3806 79.4949C81.3409 79.4544 81.566 79.0602 81.897 78.6255C82.5855 77.6958 82.8106 76.9779 82.6913 76.139C82.6119 75.6034 82.5722 75.5426 82.2942 75.5426C82.0161 75.5426 81.3012 75.0981 81.3012 74.9261C81.3012 74.7745 82.0161 74.825 82.3471 74.9967C82.6384 75.1587 82.6516 75.1587 82.5061 74.9565C82.3471 74.724 82.0825 74.6329 81.6189 74.6329C81.1424 74.6329 80.8908 74.7544 79.6727 75.6135C78.5339 76.412 77.6338 76.8062 77.1967 76.7052C76.8392 76.6141 76.8525 76.5435 77.4086 75.8863C78.0574 75.1081 78.4148 74.2691 78.3619 73.6222L78.3222 73.0965L76.8922 72.6517C75.1975 72.1162 74.5355 72.0252 73.8471 72.2374C73.2909 72.4194 73.2777 72.48 73.4896 73.5008C73.7277 74.6229 73.2777 75.2899 72.1392 75.4415C71.8214 75.492 71.5433 75.5124 71.5169 75.492C71.5037 75.4719 71.5698 75.3508 71.6889 75.2193C71.8082 75.0981 71.9008 74.8555 71.9008 74.6835C71.9008 73.7839 70.4178 73.4302 69.3984 74.0871C69.1732 74.2287 68.7232 74.6835 68.3922 75.1081C67.4521 76.2906 67.0946 76.4424 66.234 76.0278L65.7574 75.8056L66.3001 75.6942C67.4521 75.4719 67.5182 75.1587 66.7107 73.7738C66.1413 72.8237 65.9426 72.6216 65.9426 73.0158C65.9426 73.5616 65.1748 74.1075 64.6054 73.976C64.2348 73.885 63.8905 73.3492 64.1025 73.1574C64.1818 73.0764 64.3274 73.0158 64.4202 73.0158C64.698 73.0158 65.2807 72.6115 65.2807 72.4091C65.2807 72.3184 65.2013 72.1768 65.0955 72.1059C64.9894 72.0453 64.8835 71.8937 64.8571 71.7725C64.8041 71.4995 64.3803 71.4693 64.1818 71.722C64.0625 71.8532 64.089 71.9443 64.2744 72.0959C64.6319 72.3991 64.4335 72.5105 63.5331 72.5105C62.9505 72.5105 62.7518 72.48 62.8047 72.379C62.8446 72.3184 62.9637 72.0858 63.0828 71.8837C63.2021 71.6815 63.2418 71.4894 63.1889 71.459C63.1359 71.4389 62.7385 71.55 62.3282 71.7117C61.9046 71.8736 61.4807 72.0048 61.3881 72.0048C60.991 72.0048 60.9513 75.573 61.322 76.594C61.6397 77.4531 63.4537 78.4337 65.731 78.9692C67.3463 79.3534 67.6241 79.2827 69.6103 78.0797C70.6165 77.4732 71.2256 77.342 71.7418 77.6349C72.3641 77.9889 72.9335 78.6459 73.1057 79.2219C73.238 79.7071 73.238 79.8082 73.0128 80.1519C72.8673 80.3641 72.5628 80.6472 72.3244 80.7684L71.9008 80.9808L72.2979 81.0515C73.1586 81.193 73.5161 81.9714 73.1189 82.861L72.8673 83.4168L73.4102 83.1642C75.4624 82.1937 76.7996 82.2037 77.9912 83.1843C79.1827 84.1749 79.6065 85.4182 79.0504 86.2572C78.5606 86.9848 78.3619 86.7321 78.3222 85.3576C78.2958 84.4276 78.2958 84.3971 77.8851 84.1243C77.2232 83.6695 76.2831 83.528 75.3166 83.7402C74.5884 83.8918 74.4165 84.2154 74.4165 85.3877C74.4165 86.3987 74.2839 86.6614 73.7545 86.6614C73.5293 86.6614 73.5161 86.621 73.6351 86.3884C73.8206 86.0145 73.6616 85.5899 73.2645 85.3472C72.6818 85.0038 72.0331 85.1351 72.0331 85.6002C72.0331 85.8224 72.5099 86.4188 73.2777 87.1364C74.2839 88.0764 74.2178 90.2397 73.1586 90.9067C72.8409 91.1088 72.8012 90.9776 72.9732 90.3002C73.0925 89.8049 73.0925 89.5623 72.9599 89.1176C72.6554 88.0764 71.093 87.1668 69.6235 87.1668C69.2661 87.1668 69.1203 87.2073 69.1203 87.3184C69.1203 87.6015 68.5641 88.5921 68.1273 89.0874C67.8757 89.3702 67.7037 89.5928 67.7169 89.5928C67.7434 89.5928 68.0082 89.5218 68.3128 89.4411C68.7364 89.33 68.8819 89.3197 68.9219 89.4208C68.9483 89.4917 69.0674 89.7949 69.1864 90.0981C69.319 90.4013 69.6235 90.9472 69.8617 91.3009C70.5104 92.2105 70.7488 93.0699 70.6694 94.2423C70.6033 95.2834 70.3384 95.8697 69.8617 96.0414C69.5706 96.1425 69.0806 96.0518 68.9351 95.8697C68.7628 95.6575 69.1071 94.9903 69.4513 94.8691C69.6897 94.7781 69.7823 94.677 69.7823 94.4547C69.7823 94.1312 69.1203 92.514 68.7893 92.0187C68.167 91.1088 67.1608 90.6641 66.3133 90.9371C65.7707 91.1189 65.519 91.3313 64.4864 92.5037C63.2153 93.9391 62.593 94.2121 61.7852 93.7269L61.4278 93.5044L61.9443 93.272C62.4737 93.0294 62.9769 92.5341 63.2947 91.9277C63.5331 91.4626 63.5066 90.5429 63.2286 90.0171C63.0298 89.6332 62.3679 89.0874 62.1162 89.0874C62.0633 89.0874 61.6265 89.2692 61.1365 89.4917C60.2893 89.8859 59.9583 89.9566 59.5344 89.8354C59.3889 89.7949 59.4418 89.7039 59.8125 89.4613C60.501 88.9964 60.6732 88.5921 60.7923 87.1567C60.8452 86.4593 60.9248 85.7113 60.9777 85.4888C61.0439 85.1755 60.9248 85.307 60.3951 86.1257C59.6802 87.2274 59.2564 87.5711 58.6208 87.5711C58.2369 87.5711 58.2369 87.5711 58.3166 87.1467C58.3695 86.9041 58.5547 86.5199 58.7402 86.2873C58.9121 86.055 59.0579 85.782 59.0579 85.6809C59.0579 85.5899 58.846 85.2361 58.5811 84.9128C58.1443 84.377 58.1179 84.3064 58.3166 84.1548C58.8857 83.6595 59.1373 82.3958 58.7269 82.0725C58.4621 81.8804 58.0782 81.9714 58.2105 82.2037C58.674 83.0327 57.8927 83.8211 55.2315 85.2462C53.272 86.2873 53.3911 86.1966 53.6956 86.4593C54.4105 87.0657 53.3778 89.1681 52.1332 89.6533C51.6303 89.8555 51.5641 89.7848 51.8155 89.3197C52.5439 87.9148 52.001 86.803 50.4121 86.4593C49.4985 86.2672 47.8965 86.3683 47.0757 86.6614C46.4667 86.8837 46.4402 86.9041 46.7712 86.9445C46.9696 86.9646 47.2874 87.1163 47.4729 87.2779C48.1613 87.9148 47.7774 89.5623 46.8241 90.0071C46.599 90.1082 46.3738 90.1992 46.3209 90.1992C46.1092 90.1992 46.2283 89.6332 46.4799 89.3401C46.7844 88.9863 46.8241 88.5516 46.5725 88.39C46.215 88.1775 45.6324 88.1574 45.1559 88.3595C44.785 88.5212 44.7056 88.6122 44.7321 88.8244C44.7982 89.2795 45.2485 89.9566 45.725 90.3204L46.1886 90.6744L45.5531 91.6851C44.8911 92.7262 43.9642 93.6258 43.2758 93.8986C42.8652 94.0605 41.9518 94.0301 40.8792 93.8279C40.3098 93.7168 39.9656 93.3832 40.0849 93.0495C40.1643 92.8172 40.3233 92.7564 40.4556 92.9284C40.6011 93.1001 42.0047 93.0395 42.5873 92.8373C43.6862 92.4532 44.1894 91.5335 43.8052 90.654L43.6332 90.2497H41.5147C39.5552 90.2497 39.3568 90.2296 38.8271 90.0171C38.3503 89.8251 37.7412 89.2996 37.7412 89.0771C37.7412 89.0369 38.0061 89.0369 38.3239 89.057C39.4229 89.158 41.2631 88.6932 41.6737 88.218C41.8589 88.0058 41.8457 87.9148 41.5809 87.2578C41.356 86.7321 41.3031 86.3884 41.356 86.0045L41.4221 85.4687L40.6808 85.6708C39.4626 85.9942 38.4432 85.782 38.0725 85.1149C37.8473 84.7003 37.9003 84.6702 38.3503 84.9329C38.8932 85.2565 39.7804 85.2261 40.5614 84.8419C41.8986 84.195 43.3287 82.7496 44.4804 80.8898C45.4737 79.2827 45.4737 79.2219 44.4143 80.0003C42.1767 81.6478 40.7866 82.2141 40.7866 81.4862C40.7866 81.284 40.8527 81.2536 41.2763 81.2436C41.6473 81.2436 41.8457 81.1626 42.1899 80.8694C43.0242 80.1823 43.1035 79.2018 42.3622 78.7369C42.0047 78.5043 41.8457 78.4739 40.8924 78.4739C39.6878 78.4739 39.0522 78.3022 38.8139 77.908C38.5887 77.5338 38.6152 77.5137 39.3036 77.5137C40.9189 77.5137 41.7531 76.0784 41.1044 74.4208C40.8792 73.885 40.8792 73.8749 40.7337 74.1477C40.2569 74.9967 38.8932 75.4013 38.218 74.8756C38.099 74.7946 38.0061 74.6533 38.0061 74.5824C38.0061 74.4713 38.0857 74.4612 38.4167 74.5522C39.039 74.7139 39.4626 74.5319 39.4626 74.0771C39.4626 73.8344 39.3965 73.7233 39.2639 73.7233C39.1581 73.7233 39.1052 73.6627 39.1449 73.5818C39.2375 73.3897 38.6945 73.1169 38.2312 73.1169C37.6883 73.1169 37.1986 73.3492 36.0334 74.1276C34.7226 75.0071 34.2196 75.2394 33.6106 75.2394C33.2396 75.2394 33.0544 75.1687 32.8028 74.9362C32.0482 74.2591 32.2202 73.986 33.3325 74.0771C33.9151 74.1175 34.0738 74.0972 34.299 73.9255C34.6035 73.6929 34.63 73.4503 34.4181 72.7126C34.3122 72.3284 34.2329 72.2173 34.1268 72.298C33.9416 72.4396 33.2396 72.4396 32.7499 72.298C31.876 72.0453 31.373 71.3579 31.823 71.0042C31.9553 70.8931 31.9024 70.883 31.5582 70.9436C30.9888 71.0346 30.2607 70.8425 29.9297 70.5189C29.7445 70.3271 29.6648 70.1046 29.6648 69.7204C29.6648 69.2455 29.7045 69.1746 29.9165 69.1746C30.2871 69.1746 30.5917 69.0735 30.5917 68.9423C30.5917 68.8817 30.552 68.8613 30.5123 68.9018C30.4461 68.9523 29.6648 68.8007 29.1089 68.6187C28.9102 68.5581 28.8706 68.5986 28.8706 68.9119C28.8706 69.9429 27.3082 71.3683 25.0177 72.4194L24.2762 72.7631L25.4811 72.8034C27.5995 72.8642 27.8776 72.8642 28.2086 72.7933C28.5396 72.7227 28.5528 72.7327 28.4999 73.0663C28.4602 73.309 28.5528 73.5717 28.7912 73.9255C29.1486 74.4409 29.228 74.8756 29.0028 75.1383C28.9102 75.2497 28.7248 75.1687 28.0892 74.7039C27.3214 74.1376 27.2685 74.1175 26.6594 74.1477L26.0239 74.1781L25.9842 74.5925C25.9312 75.1182 26.2093 75.3809 27.3346 75.8863C27.8114 76.0987 28.2483 76.321 28.3144 76.3919C28.3805 76.4525 28.4999 76.8364 28.5792 77.251C28.7912 78.2416 29.1619 78.8581 29.559 78.9187C29.7312 78.939 30.552 79.0301 31.3994 79.1108C33.8222 79.3534 35.3846 80.0408 36.0863 81.1729C36.6292 82.022 36.5498 83.0933 35.9275 83.5685C35.2655 84.0738 35.1197 83.9121 34.9742 82.5879C34.8816 81.8095 34.8284 81.6682 34.4974 81.4052C34.0738 81.0615 33.3722 80.9202 32.9086 81.0819C32.7499 81.1425 32.3792 81.4658 32.1011 81.8095C31.0817 83.0427 30.8697 83.2248 30.5123 83.2248C30.2474 83.2248 30.1813 83.1843 30.2474 83.0528C30.3004 82.962 30.3668 82.6183 30.4197 82.2948C30.4858 81.7489 30.4726 81.7084 30.221 81.7084C29.8768 81.7084 29.2148 82.2948 29.0028 82.78C28.7248 83.3965 28.897 85.3271 29.3074 86.2976L29.6516 87.1062L29.069 87.7227C28.4999 88.3394 27.6524 88.9863 27.414 88.9863C27.2024 88.9863 26.8846 88.5416 26.8846 88.2585C26.8846 88.0362 26.9507 87.9754 27.1627 87.9754C27.626 87.9754 28.1689 87.4599 28.2747 86.9342C28.447 86.0955 27.6392 84.0333 27.0698 83.8616C26.9507 83.8312 26.5933 83.9018 26.2755 84.0233C25.2957 84.377 25.2427 84.3466 25.3487 83.5179C25.4016 83.1337 25.534 82.598 25.6267 82.3352C25.7723 81.9815 25.7723 81.8399 25.6664 81.7288C25.4149 81.5063 24.9382 81.4052 24.6072 81.5063C24.3557 81.5772 24.3424 81.5973 24.541 81.5973C24.6734 81.6074 24.9647 81.7389 25.1765 81.9106C25.5473 82.1836 25.5605 82.2241 25.3751 82.4363C25.2692 82.5678 25.0574 83.0126 24.8852 83.4269C24.3821 84.7408 24.0909 84.9935 23.6539 84.5186C23.3362 84.1749 23.4024 83.9524 23.8393 83.7807C24.2895 83.5986 24.3557 83.2954 24.0379 82.8205C23.6274 82.2241 22.3299 82.032 21.2575 82.4059C20.4233 82.689 20.3307 82.8305 20.5822 83.3965C20.8868 84.0638 20.8603 85.0139 20.5293 85.4282C20.1453 85.9135 19.8805 85.8629 20.0129 85.3271C20.238 84.4175 19.8805 83.7605 18.2652 82.1431C17.6694 81.5468 17.0339 80.8292 16.875 80.5461C16.544 80.0103 16.4646 79.2827 16.6896 78.838C16.7956 78.6155 16.7823 78.575 16.5572 78.575C16.2527 78.575 16.0277 78.8581 16.0277 79.2322C16.0277 79.5251 15.8158 79.8892 15.6437 79.8892C15.5775 79.8892 15.4583 79.687 15.3656 79.4343C15.1935 78.9692 14.9684 78.7369 14.9684 79.0301C14.9684 79.3939 15.3921 79.9093 16.3586 80.7078C16.9147 81.1729 17.4708 81.6984 17.5767 81.8704C17.815 82.2442 17.7356 82.7496 17.3781 83.0933C17.1531 83.3158 17.1531 83.3055 17.1531 82.6384C17.1531 82.0521 17.1001 81.8804 16.7956 81.5367C16.3057 80.9708 15.6569 80.6776 14.9552 80.7178C14.227 80.7583 14.0019 80.9909 13.5518 82.1937C13.2075 83.1237 13.1943 83.1337 12.8633 83.0631C12.6779 83.0126 12.2542 82.9821 11.9232 82.9821L11.3274 82.9721L11.2215 84.286C11.0891 85.873 11.0096 86.1357 10.586 86.3783C10.1093 86.6514 9.83132 86.5299 9.72542 85.974C9.56652 85.0946 9.24872 84.0839 8.99722 83.71C8.53382 83.0226 7.83202 82.861 6.74642 83.1943L6.20352 83.356L6.28292 83.9222C6.32272 84.2355 6.40212 85.0644 6.44182 85.7619C6.52132 86.9747 6.52132 87.0456 6.24322 87.2578C5.97842 87.4599 5.93872 87.4599 5.56802 87.3184C5.21052 87.1768 5.17082 87.1163 5.15752 86.631C5.15752 86.1862 5.13112 86.1357 5.01192 86.3278C4.86632 86.5604 4.28372 86.7625 3.75412 86.7625C3.40992 86.7625 2.72142 87.2173 2.85382 87.3689C2.89352 87.4195 3.14512 87.3994 3.47612 87.3083C4.49552 87.0353 4.78682 87.288 4.90602 88.5312L4.97222 89.3401L6.23002 89.8251C8.66622 90.7551 9.63272 90.7045 12.1086 89.5422C14.9552 88.2079 16.3057 87.8642 17.3649 88.2079C18.1593 88.4606 18.8345 89.3702 18.9669 90.3508L19.0066 90.654L19.2053 90.3608C19.6819 89.6533 21.1383 89.8354 22.3299 90.745C23.3229 91.5131 23.5215 92.241 22.8463 92.7262L22.555 92.9384L22.4755 92.4532C22.4226 92.0994 22.3167 91.9176 22.0519 91.7457C20.9397 91.0077 19.2317 92.2309 19.1655 93.8078L19.1391 94.3838L19.8673 94.7175C21.1648 95.3138 21.0853 95.3138 26.0239 95.2429C28.4734 95.2027 29.3206 95.3038 30.2739 95.7181C30.9756 96.0213 31.214 96.4156 30.9888 96.9109C30.7771 97.4062 30.6314 97.4363 30.5388 97.032C30.4858 96.8503 30.2739 96.5066 30.0622 96.274C29.7045 95.9002 29.6119 95.8597 29.0957 95.8597C28.2483 95.8697 28.1292 95.9909 28.0496 96.9008C28.0099 97.3353 27.9173 97.7398 27.8379 97.8004C27.6127 97.9721 27.242 97.8004 26.6197 97.2141C26.2887 96.9109 25.9047 96.6077 25.7591 96.5471C25.4943 96.4357 25.4943 96.4357 25.7459 96.6582C25.9842 96.8603 25.9974 96.9008 25.7988 97.1535C25.6929 97.3051 25.5605 97.8104 25.5075 98.2753C25.4546 98.7405 25.3619 99.2053 25.2825 99.3165C25.203 99.4276 25.1633 99.539 25.203 99.5591C25.2295 99.5792 47.0358 99.5895 73.6748 99.5792L122.094 99.549L121.26 99.0942C120.095 98.4574 118.082 96.9109 116.785 95.6575C110.853 89.9161 106.577 81.7995 106.113 75.391C106.007 73.895 106.206 72.9449 107.04 70.9335C107.901 68.8613 108.046 68.2044 108.046 66.4557C108.046 63.6355 108.761 62.0689 110.787 60.3809C111.899 59.4609 112.376 59.3093 114.203 59.2487C115.911 59.1982 116.48 59.0466 118.665 58.0864C120.161 57.4292 121.339 57.0554 121.511 57.1765C121.564 57.2271 121.511 57.4797 121.379 57.7427C120.955 58.6725 121.088 59.2083 121.962 59.9261C122.372 60.2698 122.69 60.4214 123.233 60.5426C123.63 60.6336 124.093 60.6741 124.279 60.6436C124.57 60.583 124.596 60.6132 124.596 60.8963C124.596 61.2704 124.146 61.6242 123.166 62.0184C122.279 62.3822 122.187 62.6349 122.65 63.3728C123.06 64.0097 123.815 64.6767 124.371 64.8992C125.02 65.1519 125.92 65.0204 127.271 64.4846C127.906 64.2319 128.581 64.0197 128.754 64.0197C129.124 64.0197 129.416 64.343 129.892 65.263C130.29 66.0414 130.832 66.3848 131.521 66.3142C132.169 66.2435 133.15 65.7379 133.626 65.2326C134.05 64.7981 134.394 63.8782 134.394 63.2313C134.394 62.7965 134.394 62.7965 134.685 62.9482C135.149 63.2008 135.784 63.1402 136.949 62.7561C137.532 62.5642 138.062 62.4023 138.114 62.4023C138.181 62.4023 138.141 62.5743 138.048 62.7865C137.691 63.5548 137.664 63.9792 137.955 64.4745C138.181 64.8587 138.34 64.9799 138.922 65.182C139.306 65.3135 140.034 65.4752 140.551 65.5358C141.054 65.5966 141.491 65.6673 141.517 65.6874C141.676 65.8088 141.279 66.2131 140.418 66.8296C138.737 68.0223 138.564 68.5277 139.544 69.205C140.021 69.5286 140.114 69.5487 141.239 69.5992C143.053 69.6802 143.265 69.8014 143.463 70.9235C143.516 71.2063 143.675 71.5095 143.861 71.6815C144.152 71.9443 144.231 71.9543 145.277 71.9443C146.654 71.9342 147.753 71.6006 148.547 70.9335L149.077 70.5089L149.421 70.9537C150.997 73.0055 154.016 71.449 153.83 68.6796C153.777 67.8101 153.513 67.2947 152.851 66.8095C152.454 66.5163 152.427 66.4557 152.533 66.0919C152.678 65.5056 152.771 65.3741 153.142 65.2426C153.407 65.1519 153.632 65.172 154.28 65.3437C154.731 65.4551 155.327 65.6368 155.604 65.7482C155.883 65.8594 156.373 65.9705 156.677 66.0009C157.167 66.0515 157.299 66.0311 157.537 65.839C157.922 65.5157 158.027 64.8487 157.855 63.7266C157.617 62.1396 157.048 61.4927 155.221 60.7246C153.685 60.0877 153.354 59.8856 152.996 59.3398C152.215 58.1267 152.877 55.8727 154.201 55.2258C154.863 54.9125 155.711 54.781 156.306 54.9024C156.968 55.044 157.154 55.4279 157.193 56.7823C157.233 57.8943 157.26 57.9854 157.551 58.1671C157.948 58.4098 158.689 58.4098 159.285 58.1671C159.603 58.046 159.868 57.8033 160.146 57.399C160.53 56.8328 160.543 56.7521 160.53 55.5896C160.503 53.6996 159.921 52.5675 158.345 51.3343C157.842 50.94 157.392 50.4447 157.061 49.9193C156.478 49.0094 155.737 48.413 154.638 47.9886C153.446 47.5338 152.93 47.2406 152.758 46.9575C152.665 46.7858 152.612 46.0579 152.599 44.9967V43.3087L152.215 43.0054C151.633 42.5403 150.666 42.3181 148.495 42.1461C146.363 41.9744 145.807 41.8328 143.397 40.9232C141.544 40.2157 140.855 40.0437 139.796 40.0437C139.002 40.0437 138.75 40.1043 137.413 40.5694C136.287 40.9737 135.731 41.1153 135.096 41.1555C134.275 41.206 134.262 41.196 133.745 40.8121C133.136 40.3469 132.818 39.6495 132.712 38.5983C132.66 38.0019 132.686 37.8503 132.898 37.6481L133.15 37.4056L134.182 37.7998C135.506 38.295 136.658 38.3961 136.91 38.0424C137.293 37.4864 136.605 35.9904 135.652 35.3233C135.334 35.1009 134.831 34.7977 134.513 34.6562C133.507 34.1811 132.818 33.696 132.461 33.2411C131.918 32.5234 132.011 32.392 133.401 32.0079C134.857 31.6137 135.255 31.3206 135.149 30.7444C134.963 29.7033 133.11 28.2983 130.131 26.9338C128.754 26.3071 127.655 25.7107 126.887 25.1851C126.251 24.7403 125.364 24.1945 124.941 23.9721C123.829 23.3859 119.459 21.7888 117.049 21.0813C114.322 20.2828 113.448 19.9694 112.204 19.3629C110.787 18.6756 109.384 18.1803 108.113 17.9276C107.396 17.7937 106.253 17.6465 105.213 17.5456C105.056 17.5607 104.897 17.5453 104.747 17.503C104.478 17.48 104.223 17.461 103.991 17.4472C103.755 17.4517 103.527 17.4222 103.293 17.4222C102.896 17.4222 102.604 17.402 102.631 17.3717C102.64 17.3671 102.73 17.3549 102.887 17.337C102.844 17.3274 102.821 17.3213 102.821 17.3213L101.733 17.1183C101.051 16.906 100.905 17.0628 100.284 17L96.4406 17.324C96.073 17.4175 95.711 17.4953 95.5218 17.5419C95.4047 17.5707 95.2884 17.5787 95.1767 17.5685C94.8793 17.7809 94.5316 17.9269 94.3363 18.0296C94.2929 18.0524 94.2488 18.0719 94.2044 18.088V18.088Z" fill="#DC143C"/>
<path d="M166.291 70.3016C165.947 70.4533 165.96 71.1002 166.304 71.1002C166.476 71.1002 166.582 71.0092 166.648 70.7969C166.701 70.6352 166.794 70.4735 166.86 70.4431C167.271 70.241 166.715 70.1096 166.291 70.3016V70.3016Z" fill="#DC143C"/>
<path d="M115.754 74.9817C115.78 75.0019 115.952 75.0727 116.138 75.1333C116.455 75.2445 116.455 75.2445 116.217 75.103C116.005 74.9716 115.568 74.8604 115.754 74.9817Z" fill="#DC143C"/>
<path d="M130.927 76.1239C130.874 76.1541 130.834 76.2856 130.847 76.3967C130.847 76.5888 130.861 76.5888 130.98 76.3663C131.112 76.1239 131.086 76.0025 130.927 76.1239V76.1239Z" fill="#DC143C"/>
<path d="M108.3 77.4279C108.246 77.4684 108.458 77.6199 108.763 77.7815C109.067 77.9331 109.703 78.2969 110.179 78.57C111.199 79.1764 111.662 79.2674 112.377 79.0248C112.655 78.9338 113.132 78.8227 113.424 78.7822L113.953 78.7115L112.828 78.2969C111.265 77.731 108.577 77.2054 108.3 77.4279V77.4279Z" fill="#DC143C"/>
<path d="M112.219 120.791C111.98 120.932 111.98 120.942 112.272 120.831C112.431 120.771 112.563 120.7 112.563 120.68C112.563 120.599 112.497 120.619 112.219 120.791Z" fill="#DC143C"/>
<path d="M42.7081 121.892C42.4698 122.024 42.4698 122.034 42.7611 121.973C42.92 121.943 43.0921 121.882 43.1318 121.832C43.2377 121.69 42.9994 121.721 42.7081 121.892V121.892Z" fill="#DC143C"/>
<path d="M76.012 54.16L70.972 78.064C70.9 78.328 70.756 78.556 70.54 78.748C70.324 78.916 70.048 79 69.712 79H66.112C65.8 79 65.524 78.916 65.284 78.748C65.068 78.556 64.936 78.316 64.888 78.028L61 59.344C60.904 58.864 60.808 58.396 60.712 57.94C60.616 57.46 60.52 56.992 60.424 56.536H59.668C59.572 56.992 59.476 57.46 59.38 57.94C59.308 58.42 59.224 58.888 59.128 59.344L55.276 78.028C55.204 78.316 55.048 78.556 54.808 78.748C54.592 78.916 54.328 79 54.016 79H50.38C50.068 79 49.792 78.916 49.552 78.748C49.336 78.556 49.204 78.328 49.156 78.064L44.116 54.16H47.464L51.352 73.528C51.448 73.984 51.532 74.476 51.604 75.004C51.676 75.508 51.76 76.036 51.856 76.588H52.684C52.78 76.036 52.876 75.508 52.972 75.004C53.068 74.5 53.164 74.008 53.26 73.528L57.112 55.204C57.16 54.892 57.292 54.64 57.508 54.448C57.748 54.256 58.024 54.16 58.336 54.16H61.792C62.104 54.16 62.368 54.256 62.584 54.448C62.8 54.64 62.944 54.892 63.016 55.204L66.868 73.528C66.988 74.056 67.084 74.572 67.156 75.076C67.252 75.58 67.324 76.084 67.372 76.588H68.272C68.344 76.084 68.416 75.58 68.488 75.076C68.56 74.548 68.644 74.044 68.74 73.564L72.664 54.16H76.012ZM87.8028 61.036C89.0988 61.036 90.1908 61.216 91.0788 61.576C91.9908 61.912 92.6748 62.488 93.1308 63.304C93.5868 64.12 93.8148 65.236 93.8148 66.652V79H91.4028L90.9348 75.184L90.7188 74.788V66.652C90.7188 65.572 90.4668 64.804 89.9628 64.348C89.4828 63.868 88.5468 63.628 87.1548 63.628C86.2428 63.628 85.0908 63.676 83.6988 63.772C82.3308 63.868 80.9748 63.976 79.6308 64.096L79.3428 61.828C80.1588 61.684 81.0468 61.552 82.0068 61.432C82.9908 61.312 83.9868 61.216 84.9948 61.144C86.0028 61.072 86.9388 61.036 87.8028 61.036ZM92.3748 68.2L92.3388 70.504L83.9508 70.54C83.1108 70.564 82.5228 70.792 82.1868 71.224C81.8508 71.632 81.6828 72.208 81.6828 72.952V74.068C81.6828 74.98 81.8988 75.652 82.3308 76.084C82.7628 76.492 83.4588 76.696 84.4188 76.696C85.0908 76.696 85.8468 76.576 86.6868 76.336C87.5508 76.072 88.4148 75.676 89.2788 75.148C90.1428 74.62 90.9348 73.948 91.6548 73.132V75.4C91.3908 75.736 91.0068 76.132 90.5028 76.588C90.0228 77.02 89.4348 77.452 88.7388 77.884C88.0668 78.292 87.3108 78.64 86.4708 78.928C85.6548 79.192 84.7668 79.324 83.8068 79.324C82.7748 79.324 81.8628 79.144 81.0708 78.784C80.2788 78.4 79.6548 77.848 79.1988 77.128C78.7668 76.384 78.5508 75.484 78.5508 74.428V72.52C78.5508 71.152 78.9708 70.096 79.8108 69.352C80.6748 68.584 81.8748 68.2 83.4108 68.2H92.3748ZM114.869 61.468L108.461 78.244C108.365 78.484 108.221 78.676 108.029 78.82C107.861 78.94 107.645 79 107.381 79H104.609C104.369 79 104.153 78.94 103.961 78.82C103.769 78.676 103.625 78.484 103.529 78.244L97.1207 61.468H100.397L104.717 73.744C104.909 74.248 105.089 74.764 105.257 75.292C105.425 75.82 105.593 76.324 105.761 76.804H106.229C106.421 76.3 106.601 75.796 106.769 75.292C106.961 74.764 107.141 74.248 107.309 73.744L111.629 61.468H114.869ZM125.36 61.036C128 61.036 129.908 61.516 131.084 62.476C132.284 63.436 132.884 64.864 132.884 66.76C132.908 68.32 132.584 69.544 131.912 70.432C131.24 71.296 130.172 71.728 128.708 71.728H118.484V69.352H127.916C128.708 69.352 129.224 69.088 129.464 68.56C129.704 68.008 129.824 67.408 129.824 66.76C129.8 65.632 129.464 64.828 128.816 64.348C128.168 63.868 127.064 63.628 125.504 63.628C124.232 63.628 123.224 63.82 122.48 64.204C121.76 64.564 121.244 65.212 120.932 66.148C120.644 67.06 120.5 68.344 120.5 70C120.5 71.872 120.68 73.3 121.04 74.284C121.424 75.268 122.024 75.94 122.84 76.3C123.656 76.66 124.736 76.84 126.08 76.84C127.016 76.84 128.036 76.804 129.14 76.732C130.268 76.636 131.276 76.528 132.164 76.408L132.488 78.46C131.936 78.676 131.252 78.856 130.436 79C129.644 79.144 128.816 79.252 127.952 79.324C127.112 79.396 126.356 79.432 125.684 79.432C123.668 79.432 122.048 79.132 120.824 78.532C119.6 77.908 118.7 76.924 118.124 75.58C117.572 74.212 117.296 72.412 117.296 70.18C117.296 67.876 117.572 66.064 118.124 64.744C118.7 63.4 119.576 62.452 120.752 61.9C121.952 61.324 123.488 61.036 125.36 61.036ZM152.459 61.036C154.331 61.036 155.807 61.228 156.887 61.612C157.991 61.996 158.771 62.596 159.227 63.412C159.707 64.228 159.947 65.296 159.947 66.616C159.947 67.888 159.707 68.944 159.227 69.784C158.771 70.6 157.991 71.212 156.887 71.62C155.783 72.004 154.295 72.196 152.423 72.196C150.551 72.196 149.063 72.004 147.959 71.62C146.879 71.212 146.099 70.6 145.619 69.784C145.163 68.968 144.935 67.924 144.935 66.652C144.935 65.332 145.163 64.264 145.619 63.448C146.099 62.608 146.891 61.996 147.995 61.612C149.099 61.228 150.587 61.036 152.459 61.036ZM152.423 63.376C150.671 63.376 149.447 63.628 148.751 64.132C148.079 64.612 147.743 65.44 147.743 66.616C147.743 67.768 148.079 68.596 148.751 69.1C149.447 69.604 150.671 69.856 152.423 69.856C154.199 69.856 155.423 69.604 156.095 69.1C156.767 68.596 157.103 67.768 157.103 66.616C157.103 65.44 156.767 64.612 156.095 64.132C155.423 63.628 154.199 63.376 152.423 63.376ZM161.999 61.468L161.819 63.16L157.355 63.52L156.095 61.468H161.999ZM147.491 71.044L149.255 71.296C148.847 71.656 148.571 72.1 148.427 72.628C148.283 73.132 148.319 73.6 148.535 74.032C148.775 74.464 149.267 74.74 150.011 74.86L156.563 75.904C158.219 76.144 159.371 76.66 160.019 77.452C160.667 78.244 160.991 79.372 160.991 80.836C160.991 82.204 160.727 83.284 160.199 84.076C159.695 84.868 158.831 85.432 157.607 85.768C156.383 86.104 154.727 86.272 152.639 86.272C151.055 86.272 149.723 86.176 148.643 85.984C147.563 85.816 146.687 85.516 146.015 85.084C145.367 84.676 144.899 84.136 144.611 83.464C144.323 82.792 144.179 81.952 144.179 80.944C144.179 80.176 144.287 79.528 144.503 79C144.743 78.496 145.103 78.04 145.583 77.632C146.087 77.224 146.735 76.828 147.527 76.444L149.687 75.256L151.091 75.76L149.327 77.092C148.847 77.452 148.439 77.812 148.103 78.172C147.791 78.508 147.551 78.868 147.383 79.252C147.239 79.66 147.167 80.14 147.167 80.692C147.167 81.508 147.323 82.132 147.635 82.564C147.947 82.996 148.499 83.284 149.291 83.428C150.083 83.596 151.187 83.68 152.603 83.68C154.019 83.68 155.111 83.596 155.879 83.428C156.671 83.26 157.223 82.96 157.535 82.528C157.847 82.096 158.003 81.484 158.003 80.692C158.003 80.092 157.919 79.636 157.751 79.324C157.607 79.012 157.319 78.772 156.887 78.604C156.455 78.436 155.819 78.292 154.979 78.172L148.679 77.308C147.935 77.212 147.335 76.972 146.879 76.588C146.447 76.204 146.147 75.748 145.979 75.22C145.811 74.692 145.763 74.164 145.835 73.636C145.907 73.084 146.087 72.58 146.375 72.124C146.663 71.644 147.035 71.284 147.491 71.044ZM173.69 61.036C174.986 61.036 176.078 61.216 176.966 61.576C177.878 61.912 178.562 62.488 179.018 63.304C179.474 64.12 179.702 65.236 179.702 66.652V79H177.29L176.822 75.184L176.606 74.788V66.652C176.606 65.572 176.354 64.804 175.85 64.348C175.37 63.868 174.434 63.628 173.042 63.628C172.13 63.628 170.978 63.676 169.586 63.772C168.218 63.868 166.862 63.976 165.518 64.096L165.23 61.828C166.046 61.684 166.934 61.552 167.894 61.432C168.878 61.312 169.874 61.216 170.882 61.144C171.89 61.072 172.826 61.036 173.69 61.036ZM178.262 68.2L178.226 70.504L169.838 70.54C168.998 70.564 168.41 70.792 168.074 71.224C167.738 71.632 167.57 72.208 167.57 72.952V74.068C167.57 74.98 167.786 75.652 168.218 76.084C168.65 76.492 169.346 76.696 170.306 76.696C170.978 76.696 171.734 76.576 172.574 76.336C173.438 76.072 174.302 75.676 175.166 75.148C176.03 74.62 176.822 73.948 177.542 73.132V75.4C177.278 75.736 176.894 76.132 176.39 76.588C175.91 77.02 175.322 77.452 174.626 77.884C173.954 78.292 173.198 78.64 172.358 78.928C171.542 79.192 170.654 79.324 169.694 79.324C168.662 79.324 167.75 79.144 166.958 78.784C166.166 78.4 165.542 77.848 165.086 77.128C164.654 76.384 164.438 75.484 164.438 74.428V72.52C164.438 71.152 164.858 70.096 165.698 69.352C166.562 68.584 167.762 68.2 169.298 68.2H178.262ZM206.515 61.036C208.027 61.036 209.179 61.444 209.971 62.26C210.787 63.076 211.195 64.276 211.195 65.86V79H208.171V66.724C208.147 65.644 207.931 64.864 207.523 64.384C207.115 63.88 206.419 63.628 205.435 63.628C204.811 63.628 204.211 63.736 203.635 63.952C203.083 64.144 202.471 64.456 201.799 64.888C201.127 65.32 200.311 65.884 199.351 66.58L199.171 64.42C200.443 63.292 201.679 62.452 202.879 61.9C204.079 61.324 205.291 61.036 206.515 61.036ZM187.687 61.468L187.903 64.816L188.227 65.356V79H185.167V61.468H187.687ZM195.031 61.036C196.519 61.036 197.659 61.444 198.451 62.26C199.243 63.052 199.651 64.252 199.675 65.86V79H196.723V66.724C196.723 65.596 196.495 64.804 196.039 64.348C195.583 63.868 194.899 63.628 193.987 63.628C193.387 63.628 192.799 63.724 192.223 63.916C191.671 64.108 191.047 64.42 190.351 64.852C189.679 65.284 188.851 65.86 187.867 66.58L187.651 64.42C188.923 63.292 190.159 62.452 191.359 61.9C192.559 61.324 193.783 61.036 195.031 61.036ZM223.903 61.036C226.543 61.036 228.451 61.516 229.627 62.476C230.827 63.436 231.427 64.864 231.427 66.76C231.451 68.32 231.127 69.544 230.455 70.432C229.783 71.296 228.715 71.728 227.251 71.728H217.027V69.352H226.459C227.251 69.352 227.767 69.088 228.007 68.56C228.247 68.008 228.367 67.408 228.367 66.76C228.343 65.632 228.007 64.828 227.359 64.348C226.711 63.868 225.607 63.628 224.047 63.628C222.775 63.628 221.767 63.82 221.023 64.204C220.303 64.564 219.787 65.212 219.475 66.148C219.187 67.06 219.043 68.344 219.043 70C219.043 71.872 219.223 73.3 219.583 74.284C219.967 75.268 220.567 75.94 221.383 76.3C222.199 76.66 223.279 76.84 224.623 76.84C225.559 76.84 226.579 76.804 227.683 76.732C228.811 76.636 229.819 76.528 230.707 76.408L231.031 78.46C230.479 78.676 229.795 78.856 228.979 79C228.187 79.144 227.359 79.252 226.495 79.324C225.655 79.396 224.899 79.432 224.227 79.432C222.211 79.432 220.591 79.132 219.367 78.532C218.143 77.908 217.243 76.924 216.667 75.58C216.115 74.212 215.839 72.412 215.839 70.18C215.839 67.876 216.115 66.064 216.667 64.744C217.243 63.4 218.119 62.452 219.295 61.9C220.495 61.324 222.031 61.036 223.903 61.036Z" fill="white"/>
<line x1="68" y1="89.5" x2="226" y2="89.5" stroke="white"/>
</svg>
